<svg xmlns="http://www.w3.org/2000/svg" viewBox="0 0 162.88 32.21"><defs><style>.cls-1,.cls-3{fill:#fff;}.cls-2{fill:#ee2444;stroke:#fff;stroke-miterlimit:10;}.cls-3{isolation:isolate;font-size:15.68px;font-family:Futura-Medium, Futura;font-weight:500;}</style></defs><title>Asset 2CC</title><g id="Layer_2" data-name="Layer 2"><g id="Layer_1-2" data-name="Layer 1"><g id="Layer_2-2" data-name="Layer 2"><g id="Layer_1-2-2" data-name="Layer 1-2"><g id="Layer_2-2-2" data-name="Layer 2-2"><g id="Layer_1-2-2-2" data-name="Layer 1-2-2"><g id="Layer_2-2-2-2" data-name="Layer 2-2-2"><g id="Layer_1-2-2-2-2" data-name="Layer 1-2-2-2"><path class="cls-1" d="M44.87,13.4A5.92,5.92,0,0,0,48.5,7.9c0-4.4-3-7.4-7.9-7.4H31V25h3.6V15.3h6.1A3.69,3.69,0,0,1,44.38,19h0l.5,6h3.63L48,18.7A6.32,6.32,0,0,0,44.87,13.4ZM34.57,3.6H40.5c3.21,0,4.41,2,4.41,4.2s-1.2,4.3-4.41,4.3H34.6Zm29.5,15.7c-.5,2-2.2,3.1-4.79,3.1-3.1,0-5.21-2.3-5.5-5.6h13.5c0-.3.1-.9.1-1.3,0-4.5-2.9-8.4-8.4-8.4s-8.5,4.1-8.5,9,3.4,9.2,8.9,9.2c4.3,0,7.5-2.4,8.19-6ZM59,9.8A4.56,4.56,0,0,1,63.85,14v.28h-10C54.5,11.3,56.28,9.8,59,9.8ZM77.17,25.3a6.84,6.84,0,0,0,5.6-2.9V25h3.4V0h-3.4V10a6.51,6.51,0,0,0-5.6-2.9c-5.4,0-8.4,3.9-8.4,9.1S71.77,25.3,77.17,25.3Zm.4-3c-3.3,0-5.4-2.5-5.4-6.1s2.1-6.1,5.4-6.1S83,12.5,83,16.2,80.88,22.3,77.57,22.3ZM89.88,25H105.5V21.8H93.57V.5H90V25Zm17-25V4.3h3.8V0Zm.19,25h3.43V7.4h-3.4Zm19.8-17.6V9.7a7.13,7.13,0,0,0-5.6-2.6c-5.4,0-8.4,3.9-8.4,9.1s3,9.1,8.5,9.1c2.5,0,4.7-1,5.6-2.5v2.9a3.53,3.53,0,0,1-3.35,3.7h-8.35v2.8h8.5a6.15,6.15,0,0,0,6.49-5.79V7.4Zm-5.1,14.9c-3.3,0-5.4-2.4-5.4-6.1s2.1-6.1,5.4-6.1,5.4,2.4,5.4,6.1S125,22.3,121.77,22.3Zm12.1,2.7h3.4V15.4c0-3.1,2-5.3,4.7-5.3,2.5,0,4.1,1.9,4.1,4.7V25h3.43V14.1c0-4.2-2.6-7.1-6.6-7.1a5.92,5.92,0,0,0-5.7,3.4V0h-3.39V25Zm20.4-23.2V7.3h-3.6v2.9h3.6v8.9a5.41,5.41,0,0,0,5,5.8h0a5.48,5.48,0,0,0,.81,0h2.8V22h-2.5c-1.7,0-2.7-1-2.7-2.9V10.3h5.2V7.4h-5.2V1.8Z"/></g></g><g id="Layer_2-3" data-name="Layer 2-3"><g id="Layer_1-2-3" data-name="Layer 1-2-3"><circle class="cls-2" cx="12.91" cy="14.11" r="12.41"/><text class="cls-3" transform="translate(3.51 19.75)">&lt;&gt;</text></g></g></g></g></g></g></g></g></svg>